<?xml version="1.0" encoding="utf-8"?>
<!-- Generator: Adobe Illustrator 24.0.2, SVG Export Plug-In . SVG Version: 6.00 Build 0)  -->
<svg version="1.1" xmlns="http://www.w3.org/2000/svg" xmlns:xlink="http://www.w3.org/1999/xlink" x="0px" y="0px"
	 viewBox="0 0 348.2 161.9" style="enable-background:new 0 0 348.2 161.9;" xml:space="preserve">
<style type="text/css">
	.st0{stroke:#000000;stroke-width:2;stroke-miterlimit:10;}
	.st1{stroke:#000000;stroke-width:6;stroke-miterlimit:10;}
	.st2{fill:#FFFFFF;stroke:#000000;stroke-width:4;stroke-miterlimit:10;}
	.st3{fill:none;stroke:#000000;stroke-width:4;stroke-miterlimit:10;}
	.st4{fill:none;stroke:#000000;stroke-width:3;stroke-miterlimit:10;}
	.st5{fill:#FFFFFF;}
</style>
<g id="Layer_3">
	<path class="st0" d="M150,54.2"/>
	
		<ellipse transform="matrix(0.2035 -0.9791 0.9791 0.2035 43.7544 236.951)" class="st1" cx="167.5" cy="91.6" rx="55.3" ry="153.6"/>
	<path class="st2" d="M156.4,132.5c-31.2,0-62.3,0-93.5,0C74.4,94.9,85.9,57.4,97.5,19.8c27.6,0.3,55.2,0.5,82.8,0.8
		C172.3,57.9,164.3,95.2,156.4,132.5z"/>
	<path class="st2" d="M290,133.2c-43.6-0.2-87.1-0.4-130.7-0.7c7-37.3,14-74.6,21-111.9c19.7,0.1,39.4,0.2,59.2,0.4
		C256.3,58.4,273.1,95.8,290,133.2z"/>
	<line class="st3" x1="86.8" y1="54.1" x2="141.9" y2="54.1"/>
	<path class="st4" d="M127.2,120.5c-3.8,3.4-7.5,6.7-11.3,10.1c2.8-0.1,5.6-0.2,8.4-0.3C125.3,126.9,126.2,123.7,127.2,120.5z"/>
	<path class="st0" d="M219,67c-3.2,0.1-6.5,0.2-9.7,0.2c0.8-15.4,1.7-30.8,2.5-46.3c0.6-0.1,1.2-0.3,1.8-0.4
		C215.4,36.1,217.2,51.5,219,67z"/>
	<g>
		<g>
			<path d="M121.6,130.4c1-0.5,1.9-1.2,2.6-2c0.8-0.9,1.5-1.9,1.9-3.1c0.1-0.3,0-0.9-0.2-1.2c-0.2-0.3-0.5-0.6-0.9-0.7
				c-0.4-0.1-0.8-0.1-1.2,0.2c-0.1,0.1-0.2,0.2-0.3,0.2c-0.2,0.2-0.3,0.4-0.4,0.7c0,0,0,0.1,0,0.1c0.1-0.1,0.1-0.2,0.2-0.4
				c-0.3,0.6-0.6,1.2-1,1.7c0.1-0.1,0.2-0.2,0.2-0.3c-0.4,0.5-0.9,1-1.4,1.4c0.1-0.1,0.2-0.2,0.3-0.2c-0.4,0.3-0.9,0.6-1.4,0.9
				c-0.3,0.2-0.6,0.6-0.7,0.9c-0.1,0.4-0.1,0.8,0.2,1.2c0.2,0.3,0.5,0.6,0.9,0.7C120.8,130.6,121.2,130.6,121.6,130.4L121.6,130.4z"
				/>
		</g>
	</g>
	<g>
		<g>
			<path d="M86.7,63.2c17.4-3.5,35.2-5,52.8-6.4c1.9-0.2,1.9-2.9,0-3C121,52.6,102.5,54,84,55.4c-1.9,0.1-2,3,0,3
				c10.1-0.2,20.2-0.4,30.4-0.6c1.9,0,1.9-3,0-3c-9.9-0.2-19.8,0.9-29.5,3c-1.4,0.3-1.5,2.7,0,2.9c2.7,0.4,5.3,0.4,8-0.2
				c1.6-0.4,1.3-3.1-0.4-2.9c-1.1,0.1-2.1,0.2-3.2,0.4c-1.9,0.2-1.9,3.2,0,3c1.1-0.1,2.1-0.2,3.2-0.4c-0.1-1-0.3-2-0.4-2.9
				c-2.1,0.5-4.3,0.6-6.4,0.2c0,1,0,1.9,0,2.9c9.4-2.1,19-3.1,28.7-2.9c0-1,0-2,0-3C104.2,55,94.1,55.2,84,55.4c0,1,0,2,0,3
				c18.5-1.4,37-2.8,55.6-1.6c0-1,0-2,0-3c-18,1.5-36,3-53.6,6.5C84,60.7,84.8,63.6,86.7,63.2L86.7,63.2z"/>
		</g>
	</g>
	<g>
		<path class="st5" d="M159.6,146.6l4.1-13.3l5.6,0c2.4,0,4.1,0.6,5.1,1.8c1,1.3,1.3,2.7,0.9,4.5c-0.4,2-1.5,3.7-3.2,5
			c-1.7,1.3-3.8,2-6,2L159.6,146.6z M165.4,143.3l1.2,0c0.8,0,1.6-0.3,2.3-1c0.7-0.7,1.2-1.6,1.5-2.7c0.2-1,0.2-1.8-0.1-2.5
			c-0.3-0.7-0.9-1-1.7-1l-1.2,0L165.4,143.3z"/>
		<path class="st5" d="M187.8,143.2l-0.4,3.4l-12.1,0l2.7-13.4l10.9,0l-0.3,2.9l-6.7,0l-0.3,1.9l5.5,0l-0.4,3l-5.6,0l-0.4,2.3
			L187.8,143.2z"/>
		<path class="st5" d="M202.8,133.3l-5.1,13.4l-5,0l-3.7-13.4l4.7,0l1.9,7c0.1,0.4,0.3,0.9,0.4,1.3l3.2-8.3L202.8,133.3z"/>
		<path class="st5" d="M215.5,143.3l0.3,3.5l-12.2,0l0-13.4l11,0l0.3,2.9l-6.8,0l0.1,1.9l5.5,0l0.2,3l-5.7,0l0.1,2.3L215.5,143.3z"
			/>
		<path class="st5" d="M228,143.3l0.6,3.6l-11.4,0l-1.3-13.4l4.5,0l1.3,9.9L228,143.3z"/>
		<path class="st5" d="M236.7,147.1c-2.3,0-4.3-0.7-6-2.1c-1.7-1.3-2.7-3.1-3.1-5.2c-0.4-2,0-3.6,1-4.8c1-1.2,2.6-1.8,4.8-1.8
			c2.1,0,3.9,0.6,5.5,1.7c1.6,1.2,2.8,2.7,3.3,4.8c0.6,2.2,0.4,4-0.6,5.3C240.6,146.4,239,147.1,236.7,147.1z M235.9,143.8
			c0.8,0,1.3-0.3,1.5-1c0.2-0.6,0.1-1.8-0.3-3.4c-0.6-2.3-1.6-3.4-3-3.4c-1.5,0-2,1.3-1.4,3.9C233.3,142.5,234.3,143.8,235.9,143.8z
			"/>
		<path class="st5" d="M249.2,141.7l1.8,5.2l-5.1,0l-4.1-13.5l6.3,0c1.6,0,2.8,0.2,3.8,0.5c0.9,0.3,1.8,0.8,2.5,1.4
			c0.7,0.6,1.3,1.4,1.6,2.2c0.5,1.3,0.4,2.3-0.3,3.1c-0.7,0.8-2,1.2-3.7,1.2L249.2,141.7z M248.2,138.8l1.6,0c1.4,0,1.9-0.4,1.6-1.3
			c-0.3-0.8-1.1-1.2-2.3-1.2l-1.7,0L248.2,138.8z"/>
		<path class="st5" d="M271.8,143.5l1.7,3.5l-12.4,0l-5.5-13.5l11.2,0l1.4,2.9l-6.9,0l0.8,1.9l5.6,0l1.5,3l-5.8,0l1,2.3L271.8,143.5
			z"/>
		<path class="st5" d="M289.6,147.1l-5.6,0l-5.5-5.5l-1.5,0l3,5.5l-5.1,0l-6.9-13.6l7.8,0c1.7,0,3.3,0.3,4.6,1
			c1.4,0.7,2.4,1.6,3.1,2.7c0.5,0.8,0.7,1.4,0.7,2c0,0.6-0.4,1.1-1.3,1.6L289.6,147.1z M275.4,138.6l2,0c0.6,0,1-0.1,1.3-0.3
			c0.2-0.2,0.2-0.5,0-0.9c-0.5-0.8-1.3-1.2-2.5-1.2l-2.2,0L275.4,138.6z"/>
	</g>
</g>
<g id="Layer_4">
</g>
</svg>
