<?xml version="1.0" encoding="utf-8"?>
<!-- Generator: Adobe Illustrator 24.0.2, SVG Export Plug-In . SVG Version: 6.00 Build 0)  -->
<svg version="1.1" id="Layer_1" xmlns="http://www.w3.org/2000/svg" xmlns:xlink="http://www.w3.org/1999/xlink" x="0px" y="0px"
	 viewBox="0 0 348.2 161.9" style="enable-background:new 0 0 348.2 161.9;" xml:space="preserve">
<style type="text/css">
	.st0{stroke:#000000;stroke-width:2;stroke-miterlimit:10;}
	.st1{stroke:#000000;stroke-width:6;stroke-miterlimit:10;}
	.st2{fill:#FFFFFF;stroke:#000000;stroke-width:4;stroke-miterlimit:10;}
	.st3{fill:none;stroke:#000000;stroke-width:4;stroke-miterlimit:10;}
	.st4{fill:none;stroke:#000000;stroke-width:3;stroke-miterlimit:10;}
</style>
<path class="st0" d="M154.6,43.5"/>
<ellipse transform="matrix(0.2035 -0.9791 0.9791 0.2035 55.1585 238.6034)" class="st1" cx="174.2" cy="85.4" rx="62" ry="172.1"/>
<path class="st2" d="M161.7,131.2c-34.9,0-69.8,0-104.8,0C69.9,89.2,82.8,47.1,95.7,5c30.9,0.3,61.9,0.6,92.8,0.9
	C179.6,47.7,170.7,89.4,161.7,131.2z"/>
<path class="st2" d="M311.4,132c-48.8-0.2-97.6-0.5-146.4-0.7c7.9-41.8,15.7-83.6,23.6-125.4c22.1,0.1,44.2,0.3,66.3,0.4
	C273.7,48.2,292.6,90.1,311.4,132z"/>
<line class="st3" x1="83.8" y1="43.4" x2="145.5" y2="43.4"/>
<path class="st4" d="M129.1,117.7c-4.2,3.8-8.4,7.5-12.7,11.3c3.1-0.1,6.3-0.2,9.4-0.4C126.9,125,128,121.4,129.1,117.7z"/>
<path class="st0" d="M231.9,57.9c-3.6,0.1-7.2,0.2-10.8,0.3c0.9-17.3,1.9-34.5,2.8-51.8c0.7-0.1,1.3-0.3,2-0.4
	C227.9,23.2,229.9,40.5,231.9,57.9z"/>
<g>
	<g>
		<path d="M122.6,128.7c1.1-0.5,2.1-1.3,2.9-2.2c0.9-1,1.6-2.1,2.1-3.4c0.1-0.3,0-0.9-0.2-1.2c-0.2-0.3-0.5-0.6-0.9-0.7
			c-0.4-0.1-0.8-0.1-1.2,0.2c-0.3,0.2-0.5,0.5-0.7,0.9c0,0,0,0.1-0.1,0.1c0.1-0.1,0.1-0.2,0.2-0.4c-0.3,0.7-0.7,1.3-1.1,1.9
			c0.1-0.1,0.2-0.2,0.2-0.3c-0.5,0.6-1,1.1-1.6,1.6c0.1-0.1,0.2-0.2,0.3-0.2c-0.5,0.4-1,0.7-1.6,1c-0.3,0.2-0.6,0.6-0.7,0.9
			c-0.1,0.4-0.1,0.8,0.2,1.2C121.1,128.9,121.9,129.1,122.6,128.7L122.6,128.7z"/>
	</g>
</g>
<g>
	<g>
		<path d="M83.7,53.4c19.5-3.9,39.4-5.6,59.2-7.2c1.9-0.2,1.9-2.9,0-3c-20.8-1.4-41.6,0.2-62.3,1.8c-1.9,0.1-2,3,0,3
			c11.3-0.2,22.7-0.5,34-0.7c1.9,0,1.9-3,0-3c-11.1-0.2-22.2,1-33,3.4c-1.4,0.3-1.5,2.7,0,2.9c3,0.5,5.9,0.4,8.9-0.2
			c1.6-0.4,1.3-3.1-0.4-2.9c-1.2,0.1-2.4,0.3-3.6,0.4c-1.9,0.2-1.9,3.2,0,3c1.2-0.1,2.4-0.3,3.6-0.4c-0.1-1-0.3-2-0.4-2.9
			c-2.4,0.5-4.9,0.6-7.3,0.2c0,1,0,1.9,0,2.9c10.6-2.4,21.4-3.5,32.2-3.3c0-1,0-2,0-3c-11.3,0.2-22.7,0.5-34,0.7c0,1,0,2,0,3
			c20.7-1.6,41.5-3.2,62.3-1.8c0-1,0-2,0-3c-20.1,1.7-40.2,3.3-60,7.3C81,50.9,81.8,53.8,83.7,53.4L83.7,53.4z"/>
	</g>
</g>
</svg>
